
<global>
amp_veltrack=0
</global>

<group>
amp_veltrack=0
ampeg_release=0.25
group_label=Group_0-42
lpc_hicc1=42
lpc_locc1=0

<region>
hikey=B4
hivel=127
lokey=a4
lovel=1
lpc=BbdJQq52BcPgfBFDSOvOwnvnpEITi1/C9nuJQfvHKsFpFKVB5NaLwY7lTkENYmjBjVpOQbGyoT64T2XBxZMwQfEni8BXO41ASmXwPxqpncAKYB0/mT5AQM32msDs13ZA
lpc_rms=-25.06
pitch_keycenter=A#4
sample=Baritone_plop_PP_A#4.opus
tune=+6
</region>

<region>
hikey=c4
hivel=127
lokey=b3
lovel=1
lpc=xB8sQpEj5cK62uBCSrxiwiTS8kFUL67BmFg8QcuyZsHg8pdBjQFhwWvB8UD1XBnAaxKcvkYKU0DcG1/BPzGqQe24KMEDjpm+BnSdwLJBWUGi8zHB1wRtPo+7rUDvciTA
lpc_rms=-28.36
offset=790
pitch_keycenter=c4
sample=Baritone_plop_PP_C4.opus
tune=+1
</region>

<region>
hikey=d4
hivel=127
lokey=c#4
lovel=1
lpc=GytiQjej5MI3HZFC+ewZwuKuNUJkCcfBfmRWQX5rk8HaPjNB/bwUwdlxwEB8oxLALatXQWZ+z8AqPsTAbftNwK/BjUDZhl9APT+HwD4K20BVGRPA6dv2wEtoxD9NI3xA
lpc_rms=-25.13
pitch_keycenter=d4
sample=Baritone_plop_PP_D4.opus
tune=-17
</region>

<region>
hikey=e4
hivel=127
lokey=d#4
lovel=1
lpc=tiz2QSUMjsLyR11CuVHDwSnioUH4oSfBR9t4QOjPP8HnW0dBHKMCwf1Xl0CzQA7A2vOsQAuEg8Bf7ETAPswkQOktjD99V/6/S6E7QC6S7r4EpGI/hcGvwBesjEBWtgu/
lpc_rms=-30.76
offset=1474
pitch_keycenter=e4
sample=Baritone_plop_PP_E4.opus
tune=-25
</region>

<region>
hikey=f#4
hivel=127
lokey=f4
lovel=1
lpc=m+yrQde9DMIzoGJBy/8DwXa9PUH6/T3AaFNJQAQklsDDsBZAfdxNwF3TQUAVdxXAyMMzQClY/bx4wKm/cA35v+u1Jz//Ua0+gkDJPlRJqz87Pqw/s5VSwOS+jL6lTPQ/
lpc_rms=-30.57
pitch_keycenter=f#4
sample=Baritone_plop_PP_F#4.opus
tune=-36
</region>

<region>
hikey=g#4
hivel=127
lokey=g4
lovel=1
lpc=BWV2QpuJGMPnOxFD3ruwwtGXWkKI7LXBXV0XQXxye8E+4rVBYQLQwc22lEFCRSrBgsXhQP59NEBkaofBs2KMQaNQK8Ff5kFBG/vRwBvIYkAU8p/A+PtEQPtFEcGMv/pA
lpc_rms=-26.03
pitch_keycenter=g#4
sample=Baritone_plop_PP_G#4.opus
tune=-42
</region>

<region>
hikey=a#2
hivel=127
lokey=a2
lovel=1
lpc=spg8Qq1U+cLkCghDB63Vwg0KqkLCa17CHgAFQm9B6cE0dOxBamznwU/TokGmS4/Al0mJwMQHMUEKQ4rBf+pUQQzpEsE2Hx5BBskewYJDO0E51yXB6Di1QKqCh8DAjAxA
lpc_rms=-26.92
offset=544
pitch_keycenter=a#2
sample=Baritone_plop_PP_A#2.opus
tune=-3
</region>

<region>
hikey=a#3
hivel=127
lokey=a3
lovel=1
lpc=wRQsQnJC1sKAXsJCVTNPwnwpHkILRgbCGpuzQQLvxMGW5OhBFI7Vwc5vs0GqV3nB0fcpQWC/p76RglrBSpNMQWCh+8BK1S1Bl1kbwfTkzkB5SX3AApz8v3lqSUDgstS+
lpc_rms=-30.82
offset=692
pitch_keycenter=a#3
sample=Baritone_plop_PP_A#3.opus
tune=-7
</region>

<region>
hivel=127
key=c2
lovel=1
lpc=IHRlQtEMCMNEFgBDSDCzwsq5gUIT2xnC7sOWQVQOVsH9I59BEg+TwTNNdEEUgjTB4C6dQCXePEBZpRnBrtuSQFZfEj6MFabA9pq7QDZXfr2lSzPAHqXtQOBm6cABQQhA
lpc_rms=-26.34
sample=Baritone_plop_PP_C2.opus
tune=+24
</region>

<region>
hikey=c3
hivel=127
lokey=b2
lovel=1
lpc=BeAcQoESzsLoJuZC/7KqwmbEUkIGhPPBEcSMQaBLFsENEy1BKC2MwZsejEFmLyfBKSKqQCdwM0Ay0ALBRgVjQCPPXz+0SDXArFZLQAhfFsBnGQ9ACHaDP2tliMCu0AtA
lpc_rms=-28.45
offset=1075
pitch_keycenter=c3
sample=Baritone_plop_PP_C3.opus
tune=-4
</region>

<region>
hikey=d2
hivel=127
lokey=c#2
lovel=1
lpc=Kzc6QjoH38L6IN1CvhKfwiFwZUIUcSTCevXQQZSOnsGp1IpBQzwUwexhoEBgIA3AM4PeQNjbusDTM4Q/Np8UwCaHHD+3tYW/+NvYP2iKB8DQQ4FAfsSGwIi+OUD3JXa/
lpc_rms=-25.88
pitch_keycenter=d2
sample=Baritone_plop_PP_D2.opus
tune=+4
</region>

<region>
hikey=d3
hivel=127
lokey=c#3
lovel=1
lpc=9YhjQiBoBsMK+OlCgReBwprIDkL8RLTATyS6wLJ/H8B18I1AhqyhwHK/AEGHneHAsYdTQJPsPEA1po2/e9DowGrx0UBjQRDAIExkQJb2Nr8VlXjA6JyCQF3wrcDby11A
lpc_rms=-27.43
offset=299
pitch_keycenter=d3
sample=Baritone_plop_PP_D3.opus
tune=+7
</region>

<region>
hikey=e2
hivel=127
lokey=d#2
lovel=1
lpc=dAZKQrTj8cKB7eZCQdWbwuqEX0KfgQvC9m2NQRY5gsEfOItB/wNUwbQdK0GBVCDA81yKv13ptkBvojnBRmHtQEXQKMBv/qi/k4qHQKkID8BvAci/EHqOQHHBjMCFvdY/
lpc_rms=-26.28
pitch_keycenter=e2
sample=Baritone_plop_PP_E2.opus
tune=+4
</region>

<region>
hikey=e3
hivel=127
lokey=d#3
lovel=1
lpc=tfgwQkBc0cIC96hCEVILwi/IrUGfbijBkucGwDqRk8AUizBBU+kPwdUsGkHu4dHAbgYzQNCisL4sq4m/arxfwKKCQEDg1GtA51J2wPSbekAFIb3AkEiwP2dwHEDBEny/
lpc_rms=-30.75
offset=1150
pitch_keycenter=e3
sample=Baritone_plop_PP_E3.opus
tune=+17
</region>

<region>
hikey=f#2
hivel=127
lokey=f2
lovel=1
lpc=GkNrQpNDEsMGagxDi1mtwrabYEIsGgjCZ2teQai1D8Hpx0hB9kUQwfZ540Dvtlu/9T9IwPs1rEBmqzXBRVOeQLRqaEBU/83AA+l9QJiodD9etM++pXu6PyEb7793vNO8
lpc_rms=-27.69
pitch_keycenter=f#2
sample=Baritone_plop_PP_F#2.opus
tune=+1
</region>

<region>
hikey=f#3
hivel=127
lokey=f3
lovel=1
lpc=VIO2QuJqXsOSYztDrQu/wpCKi0J2/PzBPfd5QVev7cFWn0xBpgiKwPA7cUHCbO/AG7gowMAeNkGEqGrBpnVpQG30oUAKh9HAG2coQWQLJ8GdbpM/ysplv9/IyEAUCE3A
lpc_rms=-25.80
offset=1586
pitch_keycenter=f#3
sample=Baritone_plop_PP_F#3.opus
tune=-8
</region>

<region>
hikey=g#2
hivel=127
lokey=g2
lovel=1
lpc=6mM/QlOe8cJ9JPxCTYS5wkF7fkJlPxXC09qaQTjgL8HGaD9BevBgwRk/KkEX/3i/UWC6wNZ0TUEJOorBxacZQVt0B8BN3P+/mL7wP97lDkBkXbm/JYopQDPyw8B6tklA
lpc_rms=-27.64
offset=412
pitch_keycenter=g#2
sample=Baritone_plop_PP_G#2.opus
tune=+3
</region>

<region>
hikey=g#3
hivel=127
lokey=g3
lovel=1
lpc=BbEEQvU1nMKymIhC8xgmwtniBULBuZbB3gwDQc/JPcEmgghBJ7JEwOJiGkCL1vA/DdFLwCT3i0CQjanACwAsP7MK1T/febC+hR02QF1zUsAIses/+wGMwL5kGkAzch0/
lpc_rms=-34.17
offset=951
pitch_keycenter=g#3
sample=Baritone_plop_PP_G#3.opus
tune=-11
</region>
</group>

<group>
amp_veltrack=0
ampeg_release=0.25
group_label=Group_43-84
lpc_hicc1=84
lpc_locc1=43

<region>
hikey=B4
hivel=127
lokey=a4
lovel=1
lpc=GNXrQCbKiMF9cZxBNgaBwcpjMEH6EK3Ac+A9QI4qjsCrBpFA8Gvsv+o+RL5WSAI/0d2dv+67cj8j/Xu9r5OcP/+zOMCjb0VArngnwEW7HkB6hKO/ZoSFP/zflL9kVC8/
lpc_rms=-19.05
pitch_keycenter=A#4
sample=Baritone_plop_MF_A#4.opus
tune=+33
</region>

<region>
hikey=c4
hivel=127
lokey=b3
lovel=1
lpc=XZkhQX9bwcFyD9FBbYGXwVisMEHx/KnApNJ7QL1K5sAnieNAqcmMwKDPTkD0bvS/g4ssvnuOJEDlAIDA3p+5QAIV2MCVv8pA/OyxwKVYhUCtCPa/xuAFPhLMp77UjwQ/
lpc_rms=-18.35
offset=715
pitch_keycenter=c4
sample=Baritone_plop_MF_C4.opus
tune=+7
</region>

<region>
hikey=d4
hivel=127
lokey=c#4
lovel=1
lpc=+uViQb1nCMJPSgtCliSwwUPkL0Fb4ozAgdagQI/RhsFuyr5BIS2FwfDEr0AcIARAVVO1wKW/r0Cevqi/cTvhP/2Rt8Brl8BAAx/NwA2Z6ECuqbXAQRCGQB1pi8CyGR5A
lpc_rms=-18.18
offset=2038
pitch_keycenter=d4
sample=Baritone_plop_MF_D4.opus
tune=-5
</region>

<region>
hikey=e4
hivel=127
lokey=d#4
lovel=1
lpc=c8/fQIJYg8ELnoxBI0FAwYJguEAKHQnAsZQoQP9pu8CAXOBA1xOtwBpXWkApnLe/Y9Uwv9WSIUBkzy7AspXxP2oIXr/sCSM+HRDNvoTSPz9RKGa/Te2BP7GCVr8GqwI/
lpc_rms=-21.12
offset=717
pitch_keycenter=e4
sample=Baritone_plop_MF_E4.opus
tune=-19
</region>

<region>
hikey=f#4
hivel=127
lokey=f4
lovel=1
lpc=GlzYQMufeMEr63pBRYIawfQFikAa28G/9ObXP1u3lsD5yNRAuo2mwK2jJ0AhxYy/2l+cPIqmzj+C5xfAFeAQQPOFmr8SYMy+MSTXPSKrej9F6fK/oZNMQB35RMCY+6o/
lpc_rms=-22.02
offset=388
pitch_keycenter=f#4
sample=Baritone_plop_MF_F#4.opus
tune=-35
</region>

<region>
hikey=g#4
hivel=127
lokey=g4
lovel=1
lpc=9fVYQTX8BMLX8RFCzL3EwR2PSUHvoa3ARVhWQBw9zsD5xfxAeTfPwO0Lz0CrBPjA2tKiQD/NhT80IZzADJzJQCs4gcAWbgrAV4iwQDFzf8DAfo8/u/46QBsXjMC8kQ9A
lpc_rms=-16.41
offset=3328
pitch_keycenter=g#4
sample=Baritone_plop_MF_G#4.opus
tune=-32
</region>

<region>
hikey=a#2
hivel=127
lokey=a2
lovel=1
lpc=3MQiQYZpzsGmAf5BqtTgwaqTnUH0pCvBuj6tQFM2v8AK+8xAnNR3wFt05T+6EgS/TBzIvw/AM0AdZJG/Jc9nv7m2G0AbxFXAMl3PP3/8lj+LZ6G/Sq8XPxjwML9EYJg+
lpc_rms=-19.34
pitch_keycenter=a#2
sample=Baritone_plop_MF_A#2.opus
tune=+6
</region>

<region>
hikey=a#3
hivel=127
lokey=a3
lovel=1
lpc=+AIcQQFYuMF7P7ZB23tLwV2+dUAtASq/AjSTQDjDQMEL105B6ybawDOawT79Nj1ASpEewMLNhT+QY4G/l7gJQGnOMcAhOC1A3i02wEoVJkDkGci/ShBRP5RSOr4PXBm+
lpc_rms=-20.81
offset=1000
pitch_keycenter=a#3
sample=Baritone_plop_MF_A#3.opus
tune=+18
</region>

<region>
hivel=127
key=c2
lovel=1
lpc=h9aIQcixM8K6ullCP2c0whYz7EErK2PByNzhP2BwAT4FCIpAAtW4wDgJu0DTcffAcVD9QK2oc8CMIwBAtczKv17WKz9Rz4G/+qS9P8u2D78zoEW/xA2RPwNDAL8HkBK+
lpc_rms=-18.88
sample=Baritone_plop_MF_C2.opus
</region>

<region>
hikey=c3
hivel=127
lokey=b2
lovel=1
lpc=ZUokQU3zycHbQutB6n7DwTEcekHDy9DAxgi5P5NxPcAOHppAz4dcwHSLC0BjtrC/FlKfvxVTiUBkb33Ac/vvPzOFCT+jCTfARI8nQOFF0b5TqmG/pQ7MP9UIzb+/5xk/
lpc_rms=-20.93
offset=992
pitch_keycenter=c3
sample=Baritone_plop_MF_C3.opus
tune=+6
</region>

<region>
hikey=d2
hivel=127
lokey=c#2
lovel=1
lpc=FwpuQSj1GsLzOUNC0TswwqM2BELGwbHBjA5hQWJLXcHjy3tBA4VDwftg4UB2s8TA0ivXQNubg8BeA8E/0E+sP6+mlMDT+sJAUru2wECrx0CuAsbAEamKQH79xL9ieAq+
lpc_rms=-16.73
pitch_keycenter=d2
sample=Baritone_plop_MF_D2.opus
tune=+3
</region>

<region>
hikey=d3
hivel=127
lokey=c#3
lovel=1
lpc=1wUBQRKBmMH4IrFBrfKXwYQXVkFLnAjBE+HOQKWT38DMRbdAVS9GwObW9j+LXry/DH/OPrwyArlhTq0/7aMdwFqpJ0AF1QXAwnf7PgKynz6aW0U/PMt/v8Lojj5rKra8
lpc_rms=-19.65
pitch_keycenter=d3
sample=Baritone_plop_MF_D3.opus
tune=+13
</region>

<region>
hikey=e2
hivel=127
lokey=d#2
lovel=1
lpc=3xaKQef6OsJ5+WlCksBAwrIU+0EOyIzBea0FQTjOKsHTwZhB19aZwcewNUGURcXApsMvQBZjkkAq2wfByFnLQKHrRMBy3IE/PSZ5v/jsZUBdVbXAEgWgQNd8BMAgufk9
lpc_rms=-20.19
offset=131
pitch_keycenter=e2
sample=Baritone_plop_MF_E2.opus
tune=-3
</region>

<region>
hikey=e3
hivel=127
lokey=d#3
lovel=1
lpc=y8kvQSa73cEpbPhBHDWrwXthD0GGViO/XiUtv6ViUsDnsoVAwPJQv7aI37/3y0lAyQh/wKGxokCfo6rA4/qQQEbYDMAjUwK/oLYbP3vART8JSBHAyOtyQLxiesBpP9w/
lpc_rms=-22.40
offset=913
pitch_keycenter=e3
sample=Baritone_plop_MF_E3.opus
tune=+18
</region>

<region>
hikey=f#2
hivel=127
lokey=f2
lovel=1
lpc=EXI/Qft/9MFq9RRC9KD9wWkUp0Gh4yzBkIWyQDuZB8Ey/ERBk5sdwRClmUCT/Lq/CFXvv/b+sECyS7LAQV9eQMm/4r9FRWE9Qk5UvloeJkAPc3LAWxVgQDXrBcDPQPM+
lpc_rms=-20.94
offset=1103
pitch_keycenter=f#2
sample=Baritone_plop_MF_F#2.opus
tune=+2
</region>

<region>
hikey=f#3
hivel=127
lokey=f3
lovel=1
lpc=+GN8QeAWGcL71BtCwM2xwS480EAl0J2+6E1nQMY1WMHMCoFBiUv8wNQPOD8gH7Y/yj4mwGM6skC2f8vA+tS/QNH0lcCU9+s/ks0JwKPRr0A4M8/A21mVQHIJW8B2u90/
lpc_rms=-17.64
offset=1501
pitch_keycenter=f#3
sample=Baritone_plop_MF_F#3.opus
tune=-1
</region>

<region>
hikey=g#2
hivel=127
lokey=g2
lovel=1
lpc=AN1qQctpEsKRLCFCiN7jwfKgeUF++/nAJ7adQJPqFsF5ZFFB/W7awCxm679SKjdAwKZvPSRYyj5kpdi+FjBhv9yTWD+Qjw++lpGBvljc2j/raWfAOLmXQMTrXsDAE0U/
lpc_rms=-20.91
offset=1814
pitch_keycenter=g#2
sample=Baritone_plop_MF_G#2.opus
tune=+2
</region>

<region>
hikey=g#3
hivel=127
lokey=g3
lovel=1
lpc=XHdAQcdj6cG13fNBm4OWwZd94UDcplg+r78XvzDMzsA7ZR5BdIi2wG+s2D/kkIG9GDvJv3LslkBoN9DA0L7TQPbPh8ChpRk/M/PuPvJ/tT+jqy3ACjEWQFAx3r+a604/
lpc_rms=-21.62
offset=811
pitch_keycenter=g#3
sample=Baritone_plop_MF_G#3.opus
tune=+5
</region>
</group>

<group>
amp_veltrack=0
ampeg_release=0.25
group_label=Group_85-127
lpc_hicc1=127
lpc_locc1=85

<region>
hikey=a#2
hivel=127
lokey=a2
lovel=1
lpc=q6MQQdOrp8GZLr1BRCyjwTmQZkHU4Q3B6yXZQKqq/MA4BetADwSowHeTokAOD6HAK61cQKXBF8BrcydAcrEswLVRGEDJTKu/NO7VvmqMAEDvtNS/yme7P8+Ppr/whHo+
lpc_rms=-16.60
offset=260
pitch_keycenter=a#2
sample=Baritone_plop_FF_A#2.opus
tune=+7
</region>

<region>
hikey=a#3
hivel=127
lokey=a3
lovel=1
lpc=oDj3QEVekMHCjptBQlFmwV9SBUGEZojANDJjQNy4ncADpntAgyDDv+TqRD9Reyu/1r50PMLFzT/yhT3A2oM0QJ9fwL9LlDQ+2FMiPmwZgT0Ssia+4qAPPxkY975nSi09
lpc_rms=-19.66
pitch_keycenter=a#3
sample=Baritone_plop_FF_A#3.opus
tune=+8
</region>

<region>
hikey=B4
hivel=127
lokey=a4
lovel=1
lpc=ec3dQFWSbcGwHIBBX2c6wX0E9UAi/LXAqQaeQLsPg8DcTyQ/Yzg/QGw+gcA/3jhAeZoJwNs3zz9Ve8O/GAK/P4quRb/4TZA9z9i8PoHK3LxKbso+R5wdPtVxlL529KU+
lpc_rms=-17.76
pitch_keycenter=A#4
sample=Baritone_plop_FF_A#4.opus
tune=+27
</region>

<region>
hivel=127
key=c2
lovel=1
lpc=QatIQb194sGex+tB8LvMwQzhnUHkYT/BRhLwQGuC38BSdZlAYyKgPziliMDOP41AvqGywCRqrkD0kjTAqeahPjpq0D++CkTA3tcgQGGVdb/EaCU/ME5XPjzYTb8B/i0+
lpc_rms=-13.24
offset=1102
sample=Baritone_plop_FF_C2.opus
tune=+15
</region>

<region>
hikey=c3
hivel=127
lokey=b2
lovel=1
lpc=tAERQWInqsFzBbtBEMSXwT2mR0FErMXABXJcQEhHl8C+9ZFAf437vxkWlj+FFe++dsEDwL5fPEChkMm/qchIP2S5fr9in7c/z2wiwJJFZUDxaAvATHcsP4x8874kF0w+
lpc_rms=-19.50
offset=1191
pitch_keycenter=c3
sample=Baritone_plop_FF_C3.opus
tune=+23
</region>

<region>
hikey=c4
hivel=127
lokey=b3
lovel=1
lpc=otkhQc6FwMHVPdxB5H2swU6hREG15K7AgZAzQKXPlcAGd5hAqFogwEvuQT+d4I0+aaJJv/YuFkA2Jm/AJ/WRQFvGM8AVDow/mxIIwJ3mg0DGbqfAHc+jQLXWUsBK1l4/
lpc_rms=-17.41
offset=702
pitch_keycenter=c4
sample=Baritone_plop_FF_C4.opus
tune=+11
</region>

<region>
hikey=d2
hivel=127
lokey=c#2
lovel=1
lpc=NLlkQea+AsJOPgZCmgfUwSabkkEEGjbBtFoSQQEcNcEKvzhBsyPZwHAfgEB4InrA2fThPydaYj/F2di/+BbhPyZQzL4pV1e/q6kMP6vGcT92Fby/e8DqP/YNIcBiyZc/
lpc_rms=-15.44
pitch_keycenter=d2
sample=Baritone_plop_FF_D2.opus
tune=+6
</region>

<region>
hikey=d3
hivel=127
lokey=c#3
lovel=1
lpc=r7hCQVUk+cHE6BFCngvmwQOWikFlb/HAOCRTQJwCi8ACmV1AwBsevi7QM74nG4C/Qn2iP0sGM8DiZGhAaNj1v0YPdb53EIc/5Etmv2d/eT75QX0/SCPzvoJ0k7+UWWc/
lpc_rms=-20.85
offset=376
pitch_keycenter=d3
sample=Baritone_plop_FF_D3.opus
tune=+22
</region>

<region>
hikey=d4
hivel=127
lokey=c#4
lovel=1
lpc=19YhQUMawsHpPtlBiqunwdi3WUE0pP/Ab1GmQHTI+MD2Hw9BI6LGwC2uVkAbM9W/KJWhvoZ0MkC28jHAXzH4P9cFSb+eZrs7anfzv8UriUA3W4vA6g90QK1jVMCMZr8/
lpc_rms=-16.83
pitch_keycenter=d4
sample=Baritone_plop_FF_D4.opus
tune=+10
</region>

<region>
hikey=e2
hivel=127
lokey=d#2
lovel=1
lpc=qfceQbMSs8GbOcJBpoqlwXhFakFP8wvB6dm5QK5g4sBHNQFBQcOwwF53MUDlQ8C+EdDxv4rIVUAHxizAveBwPwpnrj68Xxi/F6ioviQMvz+z6ATASwowQG824r8i1D4+
lpc_rms=-15.61
offset=40
pitch_keycenter=e2
sample=Baritone_plop_FF_E2.opus
tune=+15
</region>

<region>
hikey=e3
hivel=127
lokey=d#3
lovel=1
lpc=mrceQZLivcFUbcZBlvyFwfDqCkGHSpDAtwS0QKsgHcFiSR1B3mecwJW1zT9oTBC/8NZOP6MwAMA5HMc/pKKEP6ktR8B9eFhAhhVMwL2K+D/pryQ9UV24Ph/Dy7+UT3M/
lpc_rms=-21.95
offset=649
pitch_keycenter=e3
sample=Baritone_plop_FF_E3.opus
tune=+24
</region>

<region>
hikey=e4
hivel=127
lokey=d#4
lovel=1
lpc=ff2qQBHrQMH6M1dBs6c3wdq1E0EWvdXAeG6OQKD9bcChEi1ATHmMv5T1RT4UUCg9LT1YvwkyAEDM8fC/uwGfP6vLUb+DuBA/Z458vw24uz8GX6+/hFGSP5q3SL8rYsw+
lpc_rms=-20.10
pitch_keycenter=e4
sample=Baritone_plop_FF_E4.opus
tune=-12
</region>

<region>
hikey=f#2
hivel=127
lokey=f2
lovel=1
lpc=0iUVQfw4rsEQnspB+RO2wSTqgkFtzCbBXXL/QN09CsHf+/1A8aiYwHWgLEBdEbC/2fmSvTEfjD8l0O2/UBMPQM/rEcDZERpAyhIqwOPlOEDAzAXAgJvtP2PJw7+zZMU+
lpc_rms=-18.65
pitch_keycenter=f#2
sample=Baritone_plop_FF_F#2.opus
tune=+12
</region>

<region>
hikey=f#3
hivel=127
lokey=f3
lovel=1
lpc=wIB9QVgsGcLNdB5C/XzIwQgaOEG/opvAe65cQD66JcEWbXpBcZoNwXPoET9W3A8/RvwePxxK2z9EUR7AVFsaQAy6ZMCydglAbO8BvzfIEkBP/o7AzZN/QAaEJcBfrI8/
lpc_rms=-17.58
offset=1097
pitch_keycenter=f#3
sample=Baritone_plop_FF_F#3.opus
</region>

<region>
hikey=f#4
hivel=127
lokey=f4
lovel=1
lpc=gK20QJCXScFIu09Bt3oKwYiJnkD/hVjAzZtPQPJNV8AJh/k/icoHPbbrjr+M2ow98NHSP3g167/5oYM/pJ7sPVnBp75fziG+TXbUPRaoCjymsN6+pSLOP9CJ478zF0M/
lpc_rms=-17.86
offset=936
pitch_keycenter=f#4
sample=Baritone_plop_FF_F#4.opus
tune=-39
</region>

<region>
hikey=g#2
hivel=127
lokey=g2
lovel=1
lpc=NrcaQVzBr8FptMNBrSenwfUSXEEk4tzAEfmKQAkL0cBaluBANHeUwJLyVUCldwTAMtmgPqGXiz6qCLc+xvUrPI9AAr9E8Qo/KU6avw9aG0C/QAzAigsNQHp/+79rrK8+
lpc_rms=-17.38
offset=10
pitch_keycenter=g#2
sample=Baritone_plop_FF_G#2.opus
tune=+8
</region>

<region>
hikey=g#3
hivel=127
lokey=g3
lovel=1
lpc=MHsvQUL8yMH3RMtBQeZ1waipt0D6tDG/BNYKP1wst8Ah+QRBfnaNwProcz9kZ+U9s3Sdv1+Sb0Ct45XAFWZ1QCmIor/xLau/Yc9bP0+w/z/9t27AFP2OQCrbU8Cfp30/
lpc_rms=-19.12
offset=564
pitch_keycenter=g#3
sample=Baritone_plop_FF_G#3.opus
tune=+10
</region>

<region>
hikey=g#4
hivel=127
lokey=g4
lovel=1
lpc=S9I1QfbF38HOhvtBAdiywYJ6X0E/9QzBY9SpQFtItcCYDKtAD+OAv6XAKMDrJMQ/D34VP816qr+0SgZAEhYAwDH53z+9CVLA0ZVwQBkBDsAFr70/GY6dvKRkuL9mRaw/
lpc_rms=-15.48
offset=691
pitch_keycenter=g#4
sample=Baritone_plop_FF_G#4.opus
tune=-41
</region>
</group>

<group>
amp_veltrack=0
ampeg_attack=1.25
ampeg_release=0.35
group_label=Sustain_0-42
lpc_hicc1=42
lpc_locc1=0
volume=-3

<region>
hivel=127
key=A#3
loop_end=250159
loop_mode=loop_continuous
loop_start=72941
loop_xfade=21216
lovel=0
lpc=VA6GQvriKMN3Hx9D9ey2woRoaUIe5sbBvkLVvkBNhcHjxAhC+2GlwaZ9fUEsWIjBWU59QLalCEHHOozBUwxqQcP+4sAbc7pAT0YkP1L31cA5/MG/FcGBQaN/ncGphwtB
lpc_rms=-28.83
sample=Baritone_sustain_PP_A#3.opus
</region>

<region>
hivel=127
key=A3
loop_end=254030
loop_mode=loop_continuous
loop_start=74070
loop_xfade=21544
lovel=0
lpc=LM2SQptXP8Pq+EBDeMDwwoBYj0JXeQnCNRszQQXgjcECXv1B8oyUwaRZD0GimWjBqwkRQAHNo0FfvAfCDknHQeZMCMFRrAVBdUEuwZpCfkAUnZJAD0v0wIDKYkAl/Kk+
lpc_rms=-25.64
offset=1436
sample=Baritone_sustain_PP_A3.opus
</region>

<region>
hikey=B4
hivel=127
lokey=A4
loop_end=246452
loop_mode=loop_continuous
loop_start=71860
loop_xfade=20901
lovel=0
lpc=hry6QU0cW8IHrkhC08DiwTTsSEEBZKRAbKhFwSZkjkC74olALjk6wb33jkEQAnLB0ueOQMzlTEAKg5HA7h1Ov46mB0FYojLBmgYqQUnIvMAp46E//lsVv8KVgL+lJOs/
lpc_rms=-30.00
pitch_keycenter=A4
sample=Baritone_sustain_PP_A4.opus
</region>

<region>
hivel=127
key=b3
loop_end=267452
loop_mode=loop_continuous
loop_start=77984
loop_xfade=22682
lovel=0
lpc=MMiKQhVYOsOdUkRDt+/zwnK0iUKZTgfCEvNUQKl7g78viopBOAFzwcXpxUDHSHrA2gFfwPiXb0GFH6DBifIjQfvID0BEA3jAAE0kPxJshT21CENA2UErQKa6ZcFJShRB
lpc_rms=-26.53
sample=Baritone_sustain_PP_B3.opus
</region>

<region>
hivel=127
key=C#4
loop_end=252935
loop_mode=loop_continuous
loop_start=73751
loop_xfade=21451
lovel=0
lpc=LTtYQmAKEcPeIBZDKYvKwmFJmkJ1UiTCXZayQIkmq8HlzDJCMjTZwSlZ+0BKOY3A4J5hPyDeID1cOz2/ga/6P7e7r8AtOPxABlTkP0EbBcG3zIdAP8A4v5n+SsC3JkRA
lpc_rms=-27.51
sample=Baritone_sustain_PP_C#4.opus
</region>

<region>
hivel=127
key=C4
loop_end=256775
loop_mode=loop_continuous
loop_start=74870
loop_xfade=21777
lovel=0
lpc=22CaQiJGTsMwflhD5RsOw9XauEKiSDzC43aXQAEqasFYSS1CFPH1wRbiqEGD2vnBRCqAQcPPmEHv+trB1NAFQU4qoz+ykZLA7FUkQfOr78BFlC2/ZUiYQEj9jcA/OgFA
lpc_rms=-25.07
offset=610
sample=Baritone_sustain_PP_C4.opus
</region>

<region>
hivel=127
key=D#4
loop_end=253667
loop_mode=loop_continuous
loop_start=73964
loop_xfade=21513
lovel=0
lpc=r0f5QqkNqMMhTqtDCQlXw9ruFUPkwYzCuWrgQGd4UMK1VsJCdmV+wtzoAkJmmoHBJAR6wfH3BkJ1Jy/C7foPQuJWC8Fr56bAi6wuQZMeW8GOGUJBffqkwNc+zcCgocxA
lpc_rms=-21.57
offset=134
sample=Baritone_sustain_PP_D#4.opus
</region>

<region>
hivel=127
key=D4
loop_end=251043
loop_mode=loop_continuous
loop_start=73199
loop_xfade=21291
lovel=0
lpc=kDHdQmaRlsMaXZ9DOdxLwzBtA0MQTI7CqixTQeQz0cGpdqBCiYSzwtYub0KZUejBd8ckQMPv+EGw+z/CfSSSQZSr/0CU3XO/uqwXP2ac3MAWmwDAmM8dQc2GHsHxTrFA
lpc_rms=-21.07
offset=330
sample=Baritone_sustain_PP_D4.opus
</region>

<region>
hivel=127
key=E4
loop_end=244058
loop_mode=loop_continuous
loop_start=71162
loop_xfade=20698
lovel=0
lpc=dIXkQTArmcJG56RC1Q1nwizcHULaiYPB9oVfQJsBpMGqDgRC8g2twUrpP0HUCdbAyW0jwCg5pED5QAFAh+cQwYVA5kAElmHA/5mPQNH12L8Pnz7AJsA5QNMwFMApVso/
lpc_rms=-31.68
sample=Baritone_sustain_PP_E4.opus
</region>

<region>
hivel=127
key=F#4
loop_end=238903
loop_mode=loop_continuous
loop_start=69659
loop_xfade=20261
lovel=0
lpc=9HkNQjLFrsIl3Z5C7FMrwuks+EGzoJnBWI5vQXg3E8Ib1jRCPyoAwqTX30E7JrHBhBHvQGndK8AENgNBj3hvwaNkSkHR5V7AL/fxv3CNG0GXGITBLH4pQcmZJcAgdWs/
lpc_rms=-29.39
sample=Baritone_sustain_PP_F#4.opus
</region>

<region>
hivel=127
key=F4
loop_end=251131
loop_mode=loop_continuous
loop_start=73225
loop_xfade=21298
lovel=0
lpc=1JoUQludv8IZbsBCiUx3wg8kKkJ0L6HBohfpQNTPscHB+QtCbYvywcHNp0FZ7DDBoqISP32SF0HE9TrBSVMqQFE+dL4xj0JAYYeWPqoCdEDx3SrB19ggQVXNHMEiMrZA
lpc_rms=-32.04
sample=Baritone_sustain_PP_F4.opus
</region>

<region>
hivel=127
key=G#3
loop_end=261422
loop_mode=loop_continuous
loop_start=76225
loop_xfade=22171
lovel=0
lpc=pTfsQTb3mcL5RJlCXKYuwmPtwEGXjkzBuNrKQHQcQMFQrZFBAmxEwcCWtkDZEGbAkWNAwCZwLEETgGHBt1EjQe8kN8CUBcw/3bM9wIUr7z7AchRAm0h+PzRXqcCFWTdA
lpc_rms=-35.56
sample=Baritone_sustain_PP_G#3.opus
</region>

<region>
hivel=127
key=G#4
loop_end=247133
loop_mode=loop_continuous
loop_start=72059
loop_xfade=20959
lovel=0
lpc=XllyQsA1JMNdSSZDUqq2whKkOkKvkzbBXkFEwZqbJMFM2zhC+EhlwhYmSEI+cP3BPQ4dQS20j79GHABBjPLIwcHWBkLQt9bBJX1zQYZkK78N/+e8TS/rwKqPCkBnfwxA
lpc_rms=-26.20
sample=Baritone_sustain_PP_G#4.opus
</region>

<region>
hivel=127
key=G3
loop_end=241618
loop_mode=loop_continuous
loop_start=70451
loop_xfade=20491
lovel=0
lpc=8daBQqFkG8O2ugJDagJ4wqAjCkIh91fBg25gPwmlDMEqz5RBQEMhwQgF6kD4YRvB20hzwFGdhUFLFIzBolWhQNk6yEDXct2/Bw1swACAbD3MYaBAR/GePg+pAcEGF5RA
lpc_rms=-32.57
sample=Baritone_sustain_PP_G3.opus
</region>

<region>
hivel=127
key=G4
loop_end=236780
loop_mode=loop_continuous
loop_start=69040
loop_xfade=20081
lovel=0
lpc=s+lHQixg9MKU8e5CQdyrwh13gkLph9nBD7bbQKvz98Ft6E9CcZdCwlKdKEIwAvjB/qNHQS2SIz7JrhlBZmu+wVbmfkEJQxHBnRDTQK/YL0BQadS/kVrNwEBhxEBIoIO/
lpc_rms=-26.61
offset=257
sample=Baritone_sustain_PP_G4.opus
</region>

<region>
hivel=127
key=C#3
loop_end=255694
loop_mode=loop_continuous
loop_start=74555
loop_xfade=21685
lovel=0
lpc=/EZ8QpL/HcM+GR1D+/3Wwg/kjkKkNwfCMcdYQRd9m8FWa6RBkV/PwLNhr0Ds3gjBT9CaPzucM0Egh4jBgUeKQO/EsT8nn1xA+CwOQB9vncBJXLK+sxskv0jd6z+IQuc9
lpc_rms=-29.39
sample=Baritone_sustain_PP_C#3.opus
</region>

<region>
hivel=127
key=D#3
loop_end=243135
loop_mode=loop_continuous
loop_start=70893
loop_xfade=20620
lovel=0
lpc=gq9lQtQxE8MG3SNDULMJwxoGz0JopW/C94oFQo9m2cFaobVBpcBIwVR1FEFjIIbAdWvpwBNlo0HBWt3B0wowQZB2GkHSyFrBONY2QbiEP8Gh2l9B5eNEwT8DEEHrrWXA
lpc_rms=-26.01
sample=Baritone_sustain_PP_D#3.opus
</region>

<region>
hivel=127
key=D3
loop_end=258013
loop_mode=loop_continuous
loop_start=75231
loop_xfade=21882
lovel=0
lpc=ZdZfQlmdFMPshypDuNQLw0o0yUKbvVfCTs+wQWgbisGA1qFBu6eOwfmrhUF9X0PBemIovHSuq0FAkwrCza2cQcz0Uz9fCJLAjlaaQPt85sAr43pAM9EMwJhYrT5Ap9A/
lpc_rms=-24.67
sample=Baritone_sustain_PP_D3.opus
</region>

<region>
hivel=127
key=E3
loop_end=248492
loop_mode=loop_continuous
loop_start=72455
loop_xfade=21074
lovel=0
lpc=H6YnQqUO0MKWycpCUOx2wkARIEL8b9LB+aAxQfOOQ8ETYohBFR4fwW6Q0kCFVV7A796wwEyyQEGCISLBZt4ZQFRfZUDFrbC/REMcwNmCT7+SdQBBI48VwU10KEBaRmk/
lpc_rms=-32.59
sample=Baritone_sustain_PP_E3.opus
</region>

<region>
hivel=127
key=F#3
loop_end=252533
loop_mode=loop_continuous
loop_start=73633
loop_xfade=21417
lovel=0
lpc=3kOCQlxDKcOuqipDggfBwpfyM0JOr6XB4IuzQDWfFMHq5sJBY4KIwfjoO0BGJtq/5JOWwCAKq0G2yurBsdJlQW+rJECs6vC/2yfqv+x7nT/P+Xa/WBKaQP3X4sAKsklA
lpc_rms=-29.06
sample=Baritone_sustain_PP_F#3.opus
</region>

<region>
hivel=127
key=F3
loop_end=260794
loop_mode=loop_continuous
loop_start=76042
loop_xfade=22118
lovel=0
lpc=GoqdQvIXUcPFoWpD8oEww73o10LYjT7CuMvCQbGiAcLO2A5C+hjLwbnUqEFWvhjB7YP9wKb2sEFruefBvngnQYlk+kCX4C7AWQyzwLGCw0BemvHAi0oiQRxf9MDCBEJA
lpc_rms=-25.26
offset=622
sample=Baritone_sustain_PP_F3.opus
</region>

<region>
hivel=127
key=A#2
loop_end=255706
loop_mode=loop_continuous
loop_start=74559
loop_xfade=21686
lovel=0
lpc=61OjQqNdWcO9nl9DSfoKw0lwr0ICTVTC1OWmQX5mqcGxLfRBgq93wQSIREF/RILBE2akvzmP2kFRqBbCIz91QYyBkkDTtrNA7qZYwSI+QECfdx9BkSYawX7clj9J8p8/
lpc_rms=-26.27
sample=Baritone_sustain_PP_A#2.opus
</region>

<region>
hivel=127
key=A2
loop_end=261146
loop_mode=loop_continuous
loop_start=76145
loop_xfade=22147
lovel=0
lpc=qnu/QqMedMP1qnFDPhQhw6pE3kLqj1zCvUBPQKz5fsAXvQpC5Ea3waw9RkGDtKbB9PnkQOZ+m0GsaRbCy6mxQUZNR8CWP09AvTK9PY1YBMCmdIO9j8aaQPm2/8CSq1pA
lpc_rms=-25.71
sample=Baritone_sustain_PP_A2.opus
</region>

<region>
hivel=127
key=B2
loop_end=257853
loop_mode=loop_continuous
loop_start=75185
loop_xfade=21868
lovel=0
lpc=Usk4Qs615sLph+JCuKOfwhjRaELkb9fBJGQrQcJUoMG547dB2H5QwV8VjEGw57/BIixDQWh5PEDptjjBMv8VQaaIjMA7tTNAd0ihvgbh+z5Z9wu/INLpvWP5O8AfYi9A
lpc_rms=-30.38
sample=Baritone_sustain_PP_B2.opus
</region>

<region>
hivel=127
key=C3
loop_end=250254
loop_mode=loop_continuous
loop_start=72969
loop_xfade=21224
lovel=0
lpc=lEhtQtA6HMOPWTBDhAgLwxWLs0J7ZCXCEld6QS0Fd8FBQK9BSfGSwW5lhEEEOF/BKWaPQPSTMEG46nnBwiRaP88zB0EFPR3Awy/rwPWOJUFDOBTBfMcSQS0e2MDspg9A
lpc_rms=-26.80
sample=Baritone_sustain_PP_C3.opus
</region>

<region>
hivel=127
key=D#2
loop_end=251953
loop_mode=loop_continuous
loop_start=73464
loop_xfade=21368
lovel=0
lpc=IkCPQl3jM8MXVjBDDynmwsOpkkLXqhHClWk5QYV1eMEwSxBC9wrmwQchI0G44Ne+FMcewaRkj0GCR3zB8UWdwF+SlkH9jjTBoO3mPyC+nEAg2A3B7qzNQDkGGsAojRU/
lpc_rms=-27.70
sample=Baritone_sustain_PP_D#2.opus
</region>

<region>
hivel=127
key=E2
loop_end=255508
loop_mode=loop_continuous
loop_start=74501
loop_xfade=21669
lovel=0
lpc=XVxBQtGz5cL8HN1C/iGiwhJBc0LHZAHCWOEcQcuSK8EVR6ZBt4iIwYxVD0HF8XnAglpYPjuZEkEiFFXBocojvq4xMUGKKkLBDZN3QRMiZ8HWU8BA+5yWv+PtPj++gc2+
lpc_rms=-30.90
sample=Baritone_sustain_PP_E2.opus
</region>

<region>
hivel=127
key=F#2
loop_end=262558
loop_mode=loop_continuous
loop_start=76556
loop_xfade=22267
lovel=0
lpc=MzxzQiBmD8NL9fdC87iJwqtgOEKOocLBev0CQblLg8FX+c9BhK5SweVHIb/dab1AkgkDwZYGWEG0qonBpPeEQLNm/UDqmLLAQ/HNQMIlusCEyg3AKIKmQAHwdr8r+6S/
lpc_rms=-31.41
sample=Baritone_sustain_PP_F#2.opus
</region>

<region>
hivel=127
key=F2
loop_end=237856
loop_mode=loop_continuous
loop_start=69354
loop_xfade=20172
lovel=0
lpc=/einQiqUSsOQ4i9DY0ezwo//VEIup9vB3HW1QD22WcFarA5C8pq+wS2WP0B83WJAj41GwSMZw0GvO7bBOwqhvs8DeUEcgDzBv2zIQA1YJMDR008/6anOv3W/mT+ZLxs9
lpc_rms=-29.44
sample=Baritone_sustain_PP_F2.opus
</region>

<region>
hivel=127
key=G#2
loop_end=254410
loop_mode=loop_continuous
loop_start=74181
loop_xfade=21576
lovel=0
lpc=27mCQryZJ8MrHiZDnzzVwrX1lkLCrEnCsoO7QazXksH6O/tBJ0vewR1UR0Fs7lbA4L+pvx1UJkHLIo7BAg3VQMnlAEHxqCnBhC/NQAFuh8ACcCBAUHGcQIxN6MD6vRxA
lpc_rms=-27.96
sample=Baritone_sustain_PP_G#2.opus
</region>

<region>
hivel=127
key=G2
loop_end=242296
loop_mode=loop_continuous
loop_start=70648
loop_xfade=20549
lovel=0
lpc=NXVzQrdOEcO0SAFDqoiYwmpPV0KvRe/BDTvvQGriN8FPM79B5nlswTYMmb7qXCNBSmEqwVeGEkFgdzDBlVN5P1bPQEFUjD/BcYSdQNrfBMA53yo/WosZQNibD782G6O/
lpc_rms=-31.38
sample=Baritone_sustain_PP_G2.opus
</region>

<region>
hivel=127
key=C#2
loop_end=263196
loop_mode=loop_continuous
loop_start=76743
loop_xfade=22321
lovel=0
lpc=TozwQoNXh8OzNVFDKRHOwp93ckLAvdDBK30rQbNzjcF0kDxCZr4GwpjgFkAYMUBAkZmrwMFKh0EY+I3BBVrIvzb7M0FkOUnBVu60QRkZmsHpRlXA96ROQb9MT8FDHOdA
lpc_rms=-26.95
offset=1589
sample=Baritone_sustain_PP_C#2.opus
</region>

<region>
hivel=127
key=c2
loop_end=248947
loop_mode=loop_continuous
loop_start=72588
loop_xfade=21113
lovel=0
lpc=7eSdQqObSMPXgj5DbGfowmfOu0KbXZTCL4YqQllsEMIBiDBCaXgWwiHlqkE5mYDBjoyKQYWViMDI6svAWTnLPyLAoMByO11BBRGUwKR2AcFtmGpAooDYQIbR/MDCuClA
lpc_rms=-24.51
sample=Baritone_sustain_PP_C2.opus
</region>

<region>
hivel=127
key=D2
loop_end=255648
loop_mode=loop_continuous
loop_start=74542
loop_xfade=21681
lovel=0
lpc=S3atQtJvU8OP6UZD2r/4wvcHlkIlEiHCaFbiQe10EsLaOWVCHvZXwi4ZqUHMnylA6jWAwNXJJkHDAG7BE5erP1B+OUEdbjjB+uMHQa5G18BVPxO+T1HsQMTJF8GZzo1A
lpc_rms=-25.93
sample=Baritone_sustain_PP_D2.opus
</region>
</group>

<group>
amp_veltrack=0
ampeg_attack=1.25
ampeg_release=0.35
group_label=Sustain_43-84
lpc_hicc1=84
lpc_locc1=43
volume=-3

<region>
hivel=127
key=A#3
loop_end=279793
loop_mode=loop_continuous
loop_start=81582
loop_xfade=23729
lovel=0
lpc=fIibQYE+UMJ4+3hC58hZwhnbLkI90sPBS0L4QLi2GcEJmT9BPOCcwKVAOUCQoS/A3zdBwAFZ10BVroHAyKBsQFsD4cBVobBArVZWwGX/gUBqszjAbKSoPn/fGz4DfKc+
lpc_rms=-19.56
sample=Baritone_sustain_MF_A#3.opus
</region>

<region>
hikey=B4
hivel=127
lokey=A4
loop_end=254476
loop_mode=loop_continuous
loop_start=74200
loop_xfade=21582
lovel=0
lpc=SUfgQJK+ccEXZV9BcRQMwaNisUDsDu6/4PbCvtcrED/6dIu/4FMPP7yZBT/qSV+/CPq/PyNoOcA/q3BA0GpQwMmSvT/LlwU6ASqRvoY7Nb6NAp8/ho9Zv1mmOD0qvQ8+
lpc_rms=-22.87
pitch_keycenter=A4
sample=Baritone_sustain_MF_A4.opus
</region>

<region>
hivel=127
key=B3
loop_end=267220
loop_mode=loop_continuous
loop_start=77916
loop_xfade=22662
lovel=0
lpc=q3R7QfESIcISaC9CLkT5wU72lUFtRp7AlFjzwJb+oUCfF3NAIh5RwM1ojUA/qinBnGD7QIWp7D3/bsi+uXMcwNk+2j8jSC3ABz1DQOyUxD/wilnAgFroPt54nT8ARPy+
lpc_rms=-19.71
sample=Baritone_sustain_MF_B3.opus
</region>

<region>
hivel=127
key=C#4
loop_end=274715
loop_mode=loop_continuous
loop_start=80101
loop_xfade=23298
lovel=0
lpc=2ktTQaNbF8KPj01CzDJEwpFdFkKy6JvBOY11QJWBK8CO8w5BvgMywdq+OUHyfxvB3l4EQFmqqkBZMK7ApGQTQCQR6b8xQNU/Pb6Rv90CCkBuMJq/6481wG/2hUAA2NW/
lpc_rms=-21.13
offset=198
sample=Baritone_sustain_MF_C#4.opus
</region>

<region>
hivel=127
key=C4
loop_end=266725
loop_mode=loop_continuous
loop_start=77772
loop_xfade=22620
lovel=0
lpc=UjzCQRjbhsLrdaNCqAWDwi/BLELTBJHBNvkhwBwqYj7RYmdBJeKVwY/WmkHKGLDBtx56QUPzMcB0Tce+bq48wNKOIUDh9tW/1dCCv6dm/0CSlSPB8l2RQKKOrD6lxwC/
lpc_rms=-17.24
offset=75
sample=Baritone_sustain_MF_C4.opus
</region>

<region>
hivel=127
key=D#4
loop_end=253231
loop_mode=loop_continuous
loop_start=73837
loop_xfade=21476
lovel=0
lpc=FxSuQcH6cMKoy5pCRYGLwiLARULzn5LBV2UHwbt9FEHI2l9AeHEnwcxZcEGYlWHBQVU4QCUc8kAjC7vAJzLDvYlbCUCNpBLARYuHwNXtTEGRn1/BlcoUQf9UhMA8C7Q/
lpc_rms=-16.41
offset=303
sample=Baritone_sustain_MF_D#4.opus
</region>

<region>
hivel=127
key=D4
loop_end=279952
loop_mode=loop_continuous
loop_start=81628
loop_xfade=23742
lovel=0
lpc=geK7QSw3fcJifpZCxWhxwp8XGUITWA3BJYWJwd9plkG51v6/gXtGwbQkoUFXBLfBLwFVQcS3oEAJmmDBVVwaQWQjiMCYlc+9H9SiQEBwisDhywZAEYvpv8keLb8bc8Q/
lpc_rms=-15.16
offset=357
sample=Baritone_sustain_MF_D4.opus
</region>

<region>
hivel=127
key=E4
loop_end=245710
loop_mode=loop_continuous
loop_start=71644
loop_xfade=20838
lovel=0
lpc=2wbyQIczmsGQGsJBWemuwVM8ckFUq8zA1tzmP0eCi8CJygFB5vYdwWNEHEFIFsrAuxstQInN775Dk4+/IUi3P8Hhd78DrPU/BFV5wNMOmUB+DqLARuyBQKWeB8CMYyk/
lpc_rms=-24.39
sample=Baritone_sustain_MF_E4.opus
</region>

<region>
hivel=127
key=F#4
loop_end=270709
loop_mode=loop_continuous
loop_start=78933
loop_xfade=22958
lovel=0
lpc=OdosQUda2sFGUehBvwGOwc7/A0EWQ3/AsEBgQEC4vsA1QNFA4NTMwJyL/UAwLZTA/m0dwMiJikD1QQC/6582wMKpKkCnDRc+mbYNwCRHLj/2WmA/Mm7PP5cAfcAW0g5A
lpc_rms=-20.42
offset=551
sample=Baritone_sustain_MF_F#4.opus
</region>

<region>
hivel=127
key=F4
loop_end=264780
loop_mode=loop_continuous
loop_start=77204
loop_xfade=22456
lovel=0
lpc=pIUNQTB8rsG0QMlBUZOuwVh4gkELYNLANK90PmhMIMBMqNlA7DQWwTm/QUFq30PBfRoEQRytOsD1YSO/NzTIPw3GZ798/bi+lGVLPp/WAEDm52/ARFNkQKRqFsDiHjY/
lpc_rms=-22.25
offset=1030
sample=Baritone_sustain_MF_F4.opus
</region>

<region>
hivel=127
key=G#4
loop_end=265663
loop_mode=loop_continuous
loop_start=77462
loop_xfade=22530
lovel=0
lpc=vQNbQd12CsKGEw5C6kigwXrB0EA/xapALooswYLqWUDRTaNAgBIlwbHsa0E5aTHBOzRPQIdLvr9Kr2lADAbCwIujCUEZ4hPBGxTQQIHHXMB6yApAKSuAvx1Knr3fmww/
lpc_rms=-17.71
offset=565
sample=Baritone_sustain_MF_G#4.opus
</region>

<region>
hivel=127
key=G4
loop_end=263237
loop_mode=loop_continuous
loop_start=76755
loop_xfade=22325
lovel=0
lpc=rkNYQYKS88E/zu5B0naawYHEBEGxEFdAFxH1wKeml79olChBm+tewX39Y0H0jQ7BiLnBP2qv6T8en4G/sWgDPwfWRj72PEDABPlkQOlOVsA+O1hARMvSv0Exg79ibek/
lpc_rms=-19.24
offset=617
sample=Baritone_sustain_MF_G4.opus
</region>

<region>
hivel=127
key=A3
loop_end=264887
loop_mode=loop_continuous
loop_start=77236
loop_xfade=22465
lovel=0
lpc=4lx0QbrcJ8JekkxC+gkiwn1E10HK2GfB9eKHQObZtsBCsU1BoeFbwewcaUHoJonBrENPQQaIY8AQQEbAlQ7fQLKK38CHPjk/ye1cQHZmTcDeu4BAj9uRwHFHB0DN8oI8
lpc_rms=-20.31
sample=Baritone_sustain_MF_A3.opus
</region>

<region>
hivel=127
key=F#3
loop_end=284129
loop_mode=loop_continuous
loop_start=82846
loop_xfade=24097
lovel=0
lpc=92OFQWjkPMInmXdChnVewj5mJUJGS7XBZvwCQSNzQsFBbcBBqNLNwaKwt0Gsh7fBq7KDQfcMoMBfaFA/H50JPrRLBMALELQ+6DO8P700HT9JsTPAVTYWQFK5+75Ffp88
lpc_rms=-20.77
offset=4162
sample=Baritone_sustain_MF_F#3.opus
</region>

<region>
hivel=127
key=G#3
loop_end=279226
loop_mode=loop_continuous
loop_start=81416
loop_xfade=23681
lovel=0
lpc=zldvQQ3kLMJknGNCwTU/wqiv5EGP6BzBYi6AP9+t/cBkGoxBJZh2wfTrMUE3aD3BFQocQdbXE8CmeXvAG0rqQMHi4cATj4I/S+KEQDzKW8D2gzI/IDB0P9muTL/AfFo+
lpc_rms=-23.01
offset=222
sample=Baritone_sustain_MF_G#3.opus
</region>

<region>
hivel=127
key=G3
loop_end=265543
loop_mode=loop_continuous
loop_start=77427
loop_xfade=22520
lovel=0
lpc=7oGeQab5XsLLko5CUBlwwu14G0KGs23BH52avxuazMCua7RBZs7IwYUftEHgFanBaLg5Qd6CuT/4eKLA0LuDQOa7Q8BLnoW/Qm1NQLBMKz8+NIfA8hGGQAwEGMAPAj4/
lpc_rms=-20.73
offset=24
sample=Baritone_sustain_MF_G3.opus
</region>

<region>
hivel=127
key=D#3
loop_end=271485
loop_mode=loop_continuous
loop_start=79159
loop_xfade=23024
lovel=0
lpc=d1KvQeaRfMIhf6dC7HiUwsyIT0LdhrjBiaEdwH4vqj/MdZRBG4/twfhu+UE2tubBGYt8QazJ2T8DXfDAd39dQGYrLEDePx/Bm4RHQRSo5cAmiZw/0veRP4c/y78Bhos/
lpc_rms=-19.35
offset=145
sample=Baritone_sustain_MF_D#3.opus
</region>

<region>
hivel=127
key=E3
loop_end=267021
loop_mode=loop_continuous
loop_start=77858
loop_xfade=22646
lovel=0
lpc=XYgVQZtqxsHk3ftBmM7VwS7UhUF8i9vAEi+gP00lScADF+JAIqcEwZOz+0Aus7bATwm8Pz4tBkAfADHAHDLhP/GuUz8IQ2fAnK05QNCA+z16acK/Y2WIP2CcY78iah4/
lpc_rms=-25.81
offset=112
sample=Baritone_sustain_MF_E3.opus
</region>

<region>
hivel=127
key=F3
loop_end=274846
loop_mode=loop_continuous
loop_start=80139
loop_xfade=23309
lovel=0
lpc=slDHQT0kksJ8hb1CkBaVwqT4HkKQtELBN7mGPvD6AMEEgbNBFeDNwYAlvkGt4cLBqsaXQRCvBsF+6YVAEPHAwDYOD0Fn2CXB6r//QLuZTMAY8iY+Ls+xP4YkJ8DYjN0/
lpc_rms=-16.96
offset=643
sample=Baritone_sustain_MF_F3.opus
</region>

<region>
hivel=127
key=A#2
loop_end=268127
loop_mode=loop_continuous
loop_start=78180
loop_xfade=22739
lovel=0
lpc=yQ2iQZUja8IZYZtCGd6FwlamOUISrtXB0xoeQd6AAMFNmIxBvQqYwYPDLEGBeoHA9Wi/PmEBzD7rF8JAyihPwXwSUkHgpSHBNRXIQNWlrL/6ckrA67q4QOwDssAzZR5A
lpc_rms=-20.42
sample=Baritone_sustain_MF_A#2.opus
</region>

<region>
hivel=127
key=A2
loop_end=272731
loop_mode=loop_continuous
loop_start=79523
loop_xfade=23130
lovel=0
lpc=s7SyQesChsKh1bxCPjy1wlH/ikKTLBjCGjF9QNfX5UAiRBBBR2/lwX5VGUJfSBfCWmzRQXgJGMGDufs9K8oDQJOmmT8lpBbBF9NhQToLRMFsxghBCdWcwNggmD8lD9Y+
lpc_rms=-20.36
sample=Baritone_sustain_MF_A2.opus
</region>

<region>
hivel=127
key=B2
loop_end=274379
loop_mode=loop_continuous
loop_start=80003
loop_xfade=23270
lovel=0
lpc=m1CGQZXSQ8LN0oJCfSBnwrr6IUJ5x6bBkTJYQJv44b7MhBZBmztnwecaQkGYGAHB4s90QJww6T1aG8Q/sWvYwHfDFkFUqwjBSzerQAo/zr/AsNm/wzJnQIlEU8Bgh64/
lpc_rms=-21.82
sample=Baritone_sustain_MF_B2.opus
</region>

<region>
hivel=127
key=C#3
loop_end=281395
loop_mode=loop_continuous
loop_start=82049
loop_xfade=23865
lovel=0
lpc=DWIxQcSn8sGgTBxCuUYJwnMRwkFMp0HBC4AnP/p3DUDk9CZA34jhwFu4C0FuqQbBPaSlQLGxCcClqxlA21IrwMR+G0C5WYHATKaTQFtrL8AHnMA+qoOLP9dTsr9++Dc/
lpc_rms=-21.47
sample=Baritone_sustain_MF_C#3.opus
</region>

<region>
hivel=127
key=C3
loop_end=273874
loop_mode=loop_continuous
loop_start=79856
loop_xfade=23227
lovel=0
lpc=0m+PQTklRsJzc3tCCb9Owq9t7kEyUa3A4ClwwdqQg0EAww7ABQkowWRhfUHuz2zBmaugQNxW5UDOUQzBpMSXQBRE9b8vBN+/pHeyQPm9pMCHGP0/y/CDvkE2lT0wZKu9
lpc_rms=-19.42
sample=Baritone_sustain_MF_C3.opus
</region>

<region>
hivel=127
key=D3
loop_end=273253
loop_mode=loop_continuous
loop_start=79675
loop_xfade=23174
lovel=0
lpc=x26HQWiNRMLrz4VC231rwhaOCkLggA3B/EZuwLUwkcAVYYpBKueVwV/sbEEL2lfBNzRRQfHFI8FBl81ASCD6v9DbG7+hD4O/G2oYQIdfBz4N+IHAMb2yQMwhncBklA1A
lpc_rms=-19.57
sample=Baritone_sustain_MF_D3.opus
</region>

<region>
hivel=127
key=E2
loop_end=263705
loop_mode=loop_continuous
loop_start=76891
loop_xfade=22364
lovel=0
lpc=RzSvQSPJecKpapxCbSV6wugaGkLJBULBWzvZwHxO4j8j5BlBtOglwQsuQ0FU91LBEsrDQBzMLj9Zj5zAQlkTQQ2/CsFOsnhAiDojwJ6dXkBV08G/CAgCvqdyvT5sdGm+
lpc_rms=-23.42
sample=Baritone_sustain_MF_E2.opus
</region>

<region>
hivel=127
key=F#2
loop_end=277899
loop_mode=loop_continuous
loop_start=81030
loop_xfade=23568
lovel=0
lpc=HS+LQX2JQ8KD7XtCNnRewtHOIUI2QaLB+f8lQNFPP8CfaWhBNvafwUpfkkGDNGzBPgXmQOX3PEAMTu/AriruQN5lhcBLR0HA1tcMQe36HcE7yPRAZVCEwKEi1T91otO+
lpc_rms=-22.97
sample=Baritone_sustain_MF_F#2.opus
</region>

<region>
hivel=127
key=F2
loop_end=279247
loop_mode=loop_continuous
loop_start=81423
loop_xfade=23682
lovel=0
lpc=lOCaQc8/VsLXBYVCDuJWwuNe8EHLeHO/50OXwXK7EEEbnHVBIODEwQXfskEmgpDBDUm3QD836kABNOLAzHBZPbv9ckBw0O7Aiy4TQbtqasC7kgbAojlWQOQGLMDHlZ0/
lpc_rms=-21.03
sample=Baritone_sustain_MF_F2.opus
</region>

<region>
hivel=127
key=G#2
loop_end=267455
loop_mode=loop_continuous
loop_start=77984
loop_xfade=22682
lovel=0
lpc=FEJ+QTjPOsI2jH5CxE5kwvc6HkJRH5fBiIq+v3CJCUGQs6I/nWh1wbT9tEGEHa7BAMR+QcAbDsGnRoVASVnJv4rjV0Bgnw7BKC8fQbLowcApWmRA0QhQwEZSB0BD5Pm+
lpc_rms=-22.19
sample=Baritone_sustain_MF_G#2.opus
</region>

<region>
hivel=127
key=G2
loop_end=278177
loop_mode=loop_continuous
loop_start=81111
loop_xfade=23592
lovel=0
lpc=63ReQbnOG8Jp905COSNCwsm3FULXYaTBgaOeQAZWmcDLwWxB08yXwSsph0FyoGTBEKUGQZU8bb9PIlu/ipobv29yDEDtAK3AG3gDQSTM/cAX2LZARVNQwLZcwz/K+f++
lpc_rms=-23.03
sample=Baritone_sustain_MF_G2.opus
</region>

<region>
hivel=127
key=C#2
loop_end=262847
loop_mode=loop_continuous
loop_start=76641
loop_xfade=22292
lovel=0
lpc=lMfdQWp0nsLtzMtCMcm3wuJalkKIhE3Cm12aQbN/BMC6ktpAdoVRwXelOkFzug3BXK72QC6ucsB3OFa/S+ghQKDoiMDTeJo/k0PPQGcPF8E9SRdBq0EXwXa7/EAKu1DA
lpc_rms=-19.60
sample=Baritone_sustain_MF_C#2.opus
</region>

<region>
hivel=127
key=C2
loop_end=259480
loop_mode=loop_continuous
loop_start=75659
loop_xfade=22006
lovel=0
lpc=2oK2QSj6gMKL36RCUbeMwvpePEKNWK/B7M+2vg31H0HmU/zAn1CyQG+Na8BqAQPApMTLQE4hg8Ag/EC/8WmPQNdt1MDMrYBAergCQC9klcBJ/ZFAyzGFwGcuVUCu3bm/
lpc_rms=-18.51
sample=Baritone_sustain_MF_C2.opus
</region>

<region>
hivel=127
key=D#2
loop_end=273315
loop_mode=loop_continuous
loop_start=79693
loop_xfade=23179
lovel=0
lpc=UrupQUJbbcL1XJVCv8yCwjz5OUJ3W3LBa+t/wYzikkEat7u94yI+wfZimEHvb8LBBgqMQVSCYsCCLvK/Oe69PxAo3b95FSnAHl0IQbhNDcGqy+9APz7IwEY8REA/cv6+
lpc_rms=-21.50
sample=Baritone_sustain_MF_D#2.opus
</region>

<region>
hivel=127
key=D2
loop_end=272082
loop_mode=loop_continuous
loop_start=79334
loop_xfade=23075
lovel=0
lpc=LivlQdbFocIKHctC2I+mwjeXSEJNTAvBDWXGwV58s0ESDTtAG5+9wa+aDkJw+xLCem3JQS6pI8EiGY0/kGixP9iktbwxQr/AK5x1QTS7pcF9ca9Bs7GPwXmoHkE5iTvA
lpc_rms=-19.23
sample=Baritone_sustain_MF_D2.opus
</region>
</group>

<group>
amp_veltrack=0
ampeg_attack=1.25
ampeg_release=0.35
group_label=Sustain_85-127
lpc_hicc1=127
lpc_locc1=85
volume=-3

<region>
hikey=B4
hivel=127
lokey=A4
loop_end=254397
loop_mode=loop_continuous
loop_start=74177
loop_xfade=21575
lovel=0
lpc=b6SjQIS4McFEUThB/+0MwQX/0kDs6nnA9QUmQPehcsCyqYhAHQtGwMOoMEAs3RjA3iYWP7w2jj64vwg9bHwrvnwmPD8jtae/jdf6PmmRcj8PfRy/3kaQPs4KRL8M6Sk/
lpc_rms=-15.90
offset=1577
pitch_keycenter=A4
sample=Baritone_sustain_FF_A4.opus
</region>

<region>
hivel=127
key=D#4
loop_end=265761
loop_mode=loop_continuous
loop_start=77490
loop_xfade=22539
lovel=0
lpc=QFwuQb/P1cHHPfVBUjTJwUOfhUG8QAvBvG7fQFfgWsHRIYxB98hTwVJcE0FxN8XAC465P++GmT9BWhS/MG1ePyBE2r90KlQ+rTN+vi4SIkDunGTAt45OQDI6LcD3RL4/
lpc_rms=-14.29
offset=768
sample=Baritone_sustain_FF_D#4.opus
</region>

<region>
hivel=127
key=D4
loop_end=276337
loop_mode=loop_continuous
loop_start=80574
loop_xfade=23436
lovel=0
lpc=kBNQQQ9aBsKSqxlC+Pf0wfk4rkEWsyTBctXFPxq8y8C4WWpBO0JlwQ0GQ0EyLiPBh/D1P8P5oECD6QrAVo8vwH9Rj0DiFcfADtbGQFzBBsANsjG/vPfgPjw6Mb/zxy4/
lpc_rms=-12.57
offset=342
sample=Baritone_sustain_FF_D4.opus
</region>

<region>
hivel=127
key=E4
loop_end=262891
loop_mode=loop_continuous
loop_start=76654
loop_xfade=22295
lovel=0
lpc=iNyKQK5QE8ExMxhBx+XXwK67bECwcdK+gFtTvjN/O8DoxqVAcleVwL5dWkDvkN2/l8kQPQGj9L6AGytAzaNawOOUKkANAde/QnYQP+3pNz7vFVY++VYzvwVURT5JLNQ9
lpc_rms=-20.78
offset=243
sample=Baritone_sustain_FF_E4.opus
</region>

<region>
hivel=127
key=F#4
loop_end=270610
loop_mode=loop_continuous
loop_start=78904
loop_xfade=22950
lovel=0
lpc=FOebQMsVJ8F6HihBRMDpwMHNl0C5U1HApHhbQKwXvcCAQ9dAE+GYwMymX0BWfznAtuXCPzboTb/KZgRABkIXwOT0mj/Ni1G/PPuOPgF+OD9w/5C/7ih3P5vobb/bZCo/
lpc_rms=-17.92
offset=291
sample=Baritone_sustain_FF_F#4.opus
</region>

<region>
hivel=127
key=F4
loop_end=261966
loop_mode=loop_continuous
loop_start=76384
loop_xfade=22217
lovel=0
lpc=pDOnQOzrQMElFVVBoMMgwav/yUA0Py/Aij0FQP2Vr8A7ywVBU7nwwPwCskAyVk3AA3RoPpZyEz+Lpv8/uHJ4wFUeT0CZyt+/pdkEPpmhmz+J/Ji/y+h9PgkvQD6gOtG9
lpc_rms=-19.08
offset=497
sample=Baritone_sustain_FF_F4.opus
</region>

<region>
hivel=127
key=G#4
loop_end=267593
loop_mode=loop_continuous
loop_start=78025
loop_xfade=22694
lovel=0
lpc=xBTlQP2cdMENi3lB3DA8wQ7v6kCy+XDA7+0YQFD9o8BpCPNAkyzLwDWNp0BdllrAUisBP/YwmD9aUZe+WXWVv0wX4D+kqfC/nzpGv441VkBCnE7AHDUrQN/o2b/HF1M/
lpc_rms=-15.13
offset=566
sample=Baritone_sustain_FF_G#4.opus
</region>

<region>
hivel=127
key=G4
loop_end=275616
loop_mode=loop_continuous
loop_start=80364
loop_xfade=23375
lovel=0
lpc=VS/GQCoXYMGKkn5ByMhWwdOyGUHaB9DAnY6mQPCN1sCEswFBCP7owAfZwEC70JnAuZk2QGTSZr+VaY0/ZGq3v0AlNz8KKsi+ISAoPQkpSD8NlAbA4zoGQL2miL/dRSU/
lpc_rms=-16.14
offset=497
sample=Baritone_sustain_FF_G4.opus
</region>

<region>
hivel=127
key=A#3
loop_end=273180
loop_mode=loop_continuous
loop_start=79654
loop_xfade=23168
lovel=0
lpc=AKsVQT80t8E3f8tBDBacwVZHUEFDz+nAVOWbQHAAEcH0lz1BBoIFwQKlpkAaqXnA4R96P9WI3D+J4Ky+qyKfv90Npr5AZXQ/DBycv1N+wz+m5W2+UlPRv3HY/T+4NSa/
lpc_rms=-16.31
sample=Baritone_sustain_FF_A#3.opus
</region>

<region>
hivel=127
key=B3
loop_end=275585
loop_mode=loop_continuous
loop_start=80355
loop_xfade=23372
lovel=0
lpc=oHEdQfKTxcFwKN1BlUGiwRQCMUHpwJS/x2GxwFkuvz/P1s1AFbgPwd8FKkFThjPB4QuLQPVQZEClqGfA19QNP61dBj+UQRrAz+ZEQOqHEr5W1HO/LyUMv8bgUD99HTe+
lpc_rms=-18.36
offset=287
sample=Baritone_sustain_FF_B3.opus
</region>

<region>
hivel=127
key=C#4
loop_end=274108
loop_mode=loop_continuous
loop_start=79924
loop_xfade=23247
lovel=0
lpc=utgAQQ09msHWTa9BxACUwbj/V0EffujANOhTQG28wsDviRpBhHQCwWgp1EAk6bHA73ayP2PXDkB2nt++aCwZwAbbDUDkgAbAVY8MQOMVqb6kq1i+L5mOvxJlkz+xwdS+
lpc_rms=-17.79
offset=60
sample=Baritone_sustain_FF_C#4.opus
</region>

<region>
hivel=127
key=C4
loop_end=266901
loop_mode=loop_continuous
loop_start=77823
loop_xfade=22635
lovel=0
lpc=oHohQUSZycFKfuhBmNS+wdc0kEGhhkbB2x/3QDk2E8GXO0hBVSk3wazhGEGDRhDBoRaaQJBRdj/LxxK/9C8RwE/9/D8PwNS/iFITQGgdqL/Z24g+lalQv7UPkT+/Jre+
lpc_rms=-15.50
offset=252
sample=Baritone_sustain_FF_C4.opus
</region>

<region>
hivel=127
key=A3
loop_end=279775
loop_mode=loop_continuous
loop_start=81577
loop_xfade=23727
lovel=0
lpc=ulgHQbbnpcEWHrtBxdCfwUNViUH9+UrBJTDpQORa5sAtVhBBkCTVwHWrlED776PAtYRCQGeUhj+NgFO/CGWmv36rMD8zNX6/YlAAQP2yfb8Q9oo+uOWavwLY2T9BUUK/
lpc_rms=-16.60
offset=186
sample=Baritone_sustain_FF_A3.opus
</region>

<region>
hivel=127
key=G#3
loop_end=278200
loop_mode=loop_continuous
loop_start=81117
loop_xfade=23594
lovel=0
lpc=5GriQJvVgcFaAYpBqaRuwad8WUH2xx7BCIK3QPvGysDO9QJB3VnDwApWk0CRMpnA23EVQPVYtj8WBa+/AmuDvHrcYL/7Um0/m0jVPbyFej547he/AghEvrcjXT8bA9m+
lpc_rms=-19.79
offset=273
sample=Baritone_sustain_FF_G#3.opus
</region>

<region>
hivel=127
key=G3
loop_end=275515
loop_mode=loop_continuous
loop_start=80335
loop_xfade=23366
lovel=0
lpc=/f4KQU5ypsHkTsFBxOaswbXtk0FcflfBknAIQZNIF8FGOz5Bf6YdwVc/1kAO7pnA17nMP+q3H0DqDj3AGXQKQFilUcDA8G5AZhlHwPYQZEDTTkrARS9/PyC3hz9FRTq/
lpc_rms=-17.92
offset=34
sample=Baritone_sustain_FF_G3.opus
</region>

<region>
hivel=127
key=E3
loop_end=242879
loop_mode=loop_continuous
loop_start=70819
loop_xfade=20598
lovel=0
lpc=H+i3QLtnVMGYI2dBVjcywRqW7EB8YzrAtZsKv+39mL/PP51A3I+8wDyrqUD/L4LAaEwVP+XNN0BeHBbAs5cHvukMsj+XtxrA5+0XQBsBjL7uZtS/Utr2P9TYpL9IffY+
lpc_rms=-22.62
offset=144
sample=Baritone_sustain_FF_E3.opus
</region>

<region>
hivel=127
key=F#3
loop_end=284539
loop_mode=loop_continuous
loop_start=82966
loop_xfade=24131
lovel=0
lpc=QoQSQVoFs8ED0s9BCp22wckHjEFE8yPBVrCmQHSEycC9whNBzaAUwQOuAkEVrtnAXwhVQNK6BUDDR3PAyt7BP76c0r4Ve0y+yISNP0IkL72f+52/6QT2Pi0S3T6oDoO9
lpc_rms=-19.43
offset=3363
sample=Baritone_sustain_FF_F#3.opus
</region>

<region>
hivel=127
key=F3
loop_end=278877
loop_mode=loop_continuous
loop_start=81315
loop_xfade=23651
lovel=0
lpc=M9JUQeeBBsJ29RtC3acFwvVm1UFGt4jBmdoIQewoJsH4L3dBrEdJwaag6UAYlqHAQAPxPvxwwECN9rLA2evKvQ/WJED/hHjAb1KqQCnC+r+CkQfAuw3hP5/HojxwO5W9
lpc_rms=-15.08
offset=859
sample=Baritone_sustain_FF_F3.opus
</region>

<region>
hivel=127
key=C#3
loop_end=271841
loop_mode=loop_continuous
loop_start=79263
loop_xfade=23054
lovel=0
lpc=TgDlQN9fhME7dItBa0Jbwco6MEEWXO/A5HV1QH0yqcDoRwJBg9blwPfKsEArp5HAkKYCQG1NtT6dm5I+LC7Nv3ubmD+7vMC/a2HGP+vRT777Cw6/FdPaPBQEPT871tW+
lpc_rms=-19.53
sample=Baritone_sustain_FF_C#3.opus
</region>

<region>
hivel=127
key=D#3
loop_end=278051
loop_mode=loop_continuous
loop_start=81074
loop_xfade=23581
lovel=0
lpc=ssYqQSBvxMEoV81BdICiwYlWfEFiYifBwju6QCHk9MAWcy9B/p4awb6I70CAe7DAI6WQP0sKPEDipxvA2SbCvr9DCT+GsDG/Ey66P3qKrj6z/QXASyHSP1GSob7d06Y9
lpc_rms=-16.53
offset=148
sample=Baritone_sustain_FF_D#3.opus
</region>

<region>
hivel=127
key=D3
loop_end=264742
loop_mode=loop_continuous
loop_start=77193
loop_xfade=22452
lovel=0
lpc=mg0MQdh7qMFjQ7lBgISUwcNJXUG1jAjBDA+fQDxj9MBmhi9BWgElwS1ODEFazdjAEZkWQOPK7z82KLS/boU7v3oZlz+dsAzAqK8lQEkXOb/vBaC+L1LAvaaHtT3t2I08
lpc_rms=-17.44
offset=188
sample=Baritone_sustain_FF_D3.opus
</region>

<region>
hivel=127
key=A#2
loop_end=275288
loop_mode=loop_continuous
loop_start=80268
loop_xfade=23347
lovel=0
lpc=wF4OQcTYpMGHfKpB/L2CwQzFXkHrbFLB3Mw2QYfSM8EN8ChBnvy+wPstGkCzbgHAqF3YPrj+BEDW6Ji/RvtgvziH+j1FlH8+tFRsP6IRir8Wpxo/N/3YvmXhBD8PVCi+
lpc_rms=-16.49
sample=Baritone_sustain_FF_A#2.opus
</region>

<region>
hivel=127
key=A2
loop_end=272810
loop_mode=loop_continuous
loop_start=79546
loop_xfade=23137
lovel=0
lpc=mgAdQWO7ucFJqMdBmLmpwfXOmEFh9nTBRQwgQYcJIMF6Vk9BAe1DwfMBJEGVgxzBrXoAQY4OW8D5o5M/n1sIwDTvhT8SBCS+Z8u7P/hNgb9cQ4m/J+MkP/l8pT+DdF2/
lpc_rms=-17.38
sample=Baritone_sustain_FF_A2.opus
</region>

<region>
hivel=127
key=B2
loop_end=269198
loop_mode=loop_continuous
loop_start=78492
loop_xfade=22830
lovel=0
lpc=eqb+QNdUmcHC6K1BfNSewYXKlUHeTnHBfsgfQaQOIMF3cTFBQLHqwBVIjUDFs4PA1sSgPyDMLkASpxbA3cddP4gi0r8ufDo/IbZwP+DjeT6S7tq/rsFzP+7ojT3888O9
lpc_rms=-19.20
sample=Baritone_sustain_FF_B2.opus
</region>

<region>
hivel=127
key=C3
loop_end=275184
loop_mode=loop_continuous
loop_start=80238
loop_xfade=23338
lovel=0
lpc=Q8gOQWjNpMGRirBBe3GQwUiEZkEIDCrBeMviQImt+cCsohdBfKj3wDeTvkCrgcHAzliUQFUIkr9SrKS+mNzJvLwiML9pvUg/S89mPtfgNT1+uVO/EvjjPobqPj8uRBO/
lpc_rms=-17.83
sample=Baritone_sustain_FF_C3.opus
</region>

<region>
hivel=127
key=C#2
loop_end=260711
loop_mode=loop_continuous
loop_start=76018
loop_xfade=22110
lovel=0
lpc=pLhCQX2U5MFaG+9BWr/CwYQQpUHWy33Bnv4UQTAowsApw7tAN2KCwFV5tT9FIqS+MVoUPk7ktT8lPR3AMuuqPzJoyL/5mcw/8eA0P0Np2L8oCJo/VdkAv3eeGz9krQK/
lpc_rms=-16.86
offset=7645
sample=Baritone_sustain_FF_C#2.opus
</region>

<region>
hivel=127
key=C2
loop_end=246566
loop_mode=loop_continuous
loop_start=71893
loop_xfade=20911
lovel=0
lpc=Nq0NQXJHlcHYuodBtOFVwVavTUFKeS7BPzDcQMgRx8AdTwhBuE7pwPwdWUAYtti/7JqIP+Y0iz/sVifA1ZCdP9RRd7+t4TFAmeENwKikIj9MJCO/SO3AP8Twm7/EHoI+
lpc_rms=-12.85
offset=438
sample=Baritone_sustain_FF_C2.opus
</region>

<region>
hivel=127
key=D#2
loop_end=274340
loop_mode=loop_continuous
loop_start=79992
loop_xfade=23266
lovel=0
lpc=6nsuQX2M08EYZeZB12++wQ3Qm0HaomXBRPgbQXC0DMFr7ghBLmTCwDiViUBRNIjAvns2QHhcRz/wERDAgCJTP2UqhL8lxOc/Vd17vxQ1Yj+zum2/7vQivmTcND/nWF++
lpc_rms=-16.48
offset=5903
sample=Baritone_sustain_FF_D#2.opus
</region>

<region>
hivel=127
key=D2
loop_end=255540
loop_mode=loop_continuous
loop_start=74510
loop_xfade=21672
lovel=0
lpc=1cBEQRw47sH1kgJCh9XdwX3IwkGn3JXB5HQoQc8D/MA24BlBexILwbxZuECs+KbA66WuQFwiPcAeYtg/12ZbwBFjD0Dta6s+2t+VPR/APD8mHFHAY+5GQLlmAr9aX82+
lpc_rms=-17.25
sample=Baritone_sustain_FF_D2.opus
</region>

<region>
hivel=127
key=E2
loop_end=243233
loop_mode=loop_continuous
loop_start=70922
loop_xfade=20628
lovel=0
lpc=5fsbQaMKtsFQI8NBLXigwYlBfkHiijDBi4LeQEUlzcB5xMZAK2R/wIRQWECQGprA3pWpQPHHdcClOzNAeqjzv1mxNz9uWwjA0p50QIQMHsAANYg/VL8vv+JvKz9pmou+
lpc_rms=-18.40
sample=Baritone_sustain_FF_E2.opus
</region>

<region>
hivel=127
key=F#2
loop_end=267824
loop_mode=loop_continuous
loop_start=78092
loop_xfade=22714
lovel=0
lpc=DjwTQSeJssFzarxBgguIwULmP0EcUwHBZPKgQJwzxsD3HvdAXV2FwB5sIj/kf5C/7T5zP9h1bj/qmUy+JBmov/FILr8i8u8/IYzAPptgur+mYoE/Izm9v6qnyT8MHgi/
lpc_rms=-19.07
sample=Baritone_sustain_FF_F#2.opus
</region>

<region>
hivel=127
key=F2
loop_end=267031
loop_mode=loop_continuous
loop_start=77861
loop_xfade=22646
lovel=0
lpc=SPIQQYqnqMEcg65BegaFwSzAT0GRpSDBjp37QJsKCMH0egRByO52wBGd7D6qSGC/FdAdPwIEnD9u+jG/+R9qv3Z+xr5Fojo/PQ/CP0HYyL/S4q8+vOYIv0rMcT/iQJq+
lpc_rms=-18.36
sample=Baritone_sustain_FF_F2.opus
</region>

<region>
hivel=127
key=G#2
loop_end=254605
loop_mode=loop_continuous
loop_start=74237
loop_xfade=21593
lovel=0
lpc=bGURQXDnqcHScqpB/QJtwSByJ0H1vOPAsFejQCAl/sCSlhRBCNR8wFJ1gD7lpcK/8AZfPye5/j+Pb42/tS4+vzkjNr8ZHSI/7++2PxCsUr8HGpQ9WHu8vzJBCkBjanm/
lpc_rms=-17.40
sample=Baritone_sustain_FF_G#2.opus
</region>

<region>
hivel=127
key=G2
loop_end=276465
loop_mode=loop_continuous
loop_start=80612
loop_xfade=23447
lovel=0
lpc=ObISQVQKqMHf2axBXIaNwfoYgUG5z1zBMQsdQURQGMG7ExZBLD56wEvQ7r4PfQ8/Z7Dyv98jlUBbvHbARWu/PwPOCcAmyQlAty8fP1lEob961vc+7Berv2NaDkAqp5m/
lpc_rms=-17.69
offset=250
sample=Baritone_sustain_FF_G2.opus
</region>
</group>